<?xml version="1.0" encoding="UTF-8"?>
<svg id="Capa_1" xmlns="http://www.w3.org/2000/svg" version="1.1" viewBox="0 0 512 512">
  <!-- Generator: Adobe Illustrator 29.0.1, SVG Export Plug-In . SVG Version: 2.1.0 Build 192)  -->
  <defs>
    <style>
      .st0 {
        fill: #e50914;
      }
    </style>
  </defs>
  <path class="st0" d="M405.3,396.6c-11.8,0-21.3,9.6-21.3,21.3v46.1c0,2.9-2.4,5.3-5.3,5.3H48c-2.8,0-5.1-2.1-5.3-4.9V101.8c0-2.9,2.4-5.3,5.3-5.3h26.7c11.8,0,21.3-9.6,21.3-21.3s-9.6-21.3-21.3-21.3h-32C19.1,53.8,0,72.9,0,96.4v372.9c0,23.6,19.1,42.7,42.7,42.7h341.3c23.6,0,42.7-19.1,42.7-42.7v-51.4c0-11.8-9.6-21.3-21.3-21.3M352,96h26.7c2.9,0,5.3,2.4,5.3,5.3v16c0,11.8,9.6,21.3,21.3,21.3s21.3-9.6,21.3-21.3v-21.3c0-23.6-19.1-42.7-42.7-42.7h-32c-11.8,0-21.3,9.6-21.3,21.3s9.6,21.3,21.3,21.3"/>
  <path class="st0" d="M149.3,117.3h128c17.7,0,32-14.3,32-32v-10.7c0-17.7-14.3-32-32-32h-21.3c0-23.6-19.1-42.7-42.7-42.7s-42.7,19.1-42.7,42.7h-21.3c-17.7,0-32,14.3-32,32v10.7c0,17.7,14.3,32,32,32M85.3,213.3c0,11.8,9.6,21.3,21.3,21.3h170.7c11.8,0,21.3-9.6,21.3-21.3s-9.6-21.3-21.3-21.3H106.7c-11.8,0-21.3,9.6-21.3,21.3M106.7,298.7c-11.8,0-21.3,9.6-21.3,21.3s9.6,21.3,21.3,21.3h96c11.8,0,21.3-9.6,21.3-21.3s-9.6-21.3-21.3-21.3h-96ZM499.4,175.8c-16.6-16.5-43.5-16.5-60.2,0l-167.9,167.9c-1,1-1.9,2.3-2.3,3.6l-30.3,75.3c-1.5,4-.6,8.5,2.3,11.5,3,3.1,7.6,4,11.5,2.3l75.5-30.1c1.3-.6,2.6-1.4,3.6-2.3l167.7-167.9c16.7-16.7,16.7-43.7,0-60.3,0,0,0,0,0,0"/>
</svg>