<?xml version="1.0" encoding="UTF-8"?>
<svg id="Capa_1" xmlns="http://www.w3.org/2000/svg" version="1.1" viewBox="0 0 512 512">
  <!-- Generator: Adobe Illustrator 29.0.1, SVG Export Plug-In . SVG Version: 2.1.0 Build 192)  -->
  <defs>
    <style>
      .st0 {
        fill: #e50914;
      }
    </style>
  </defs>
  <path class="st0" d="M512,200.4c0,4.9-4.7,11.1-14.1,18.5l-134.1,97.5,51.2,157.5c1.6,5.5,2.4,10.4,2.4,14.6,0,7.8-2.9,11.7-8.8,11.7s-11.7-2.8-18.5-8.3l-134.1-97-134.1,97c-7.5,5.5-13.8,8.3-19,8.3s-8.8-3.7-8.8-11.2,1-8.6,2.9-15.1l51.2-157.5L14.1,218.9c-9.4-6.8-14.1-12.8-14.1-18,0-7.5,8-11.2,23.9-11.2l165.8.5,50.7-158c3.9-13,9.1-19.5,15.6-19.5s11.2,6.5,15.1,19.5l51.7,158,165.3-.5c15.9,0,23.9,3.6,23.9,10.7Z"/>
</svg>