<?xml version="1.0" encoding="UTF-8"?>
<svg id="Capa_1" xmlns="http://www.w3.org/2000/svg" version="1.1" viewBox="0 0 512 512">
  <!-- Generator: Adobe Illustrator 29.0.1, SVG Export Plug-In . SVG Version: 2.1.0 Build 192)  -->
  <defs>
    <style>
      .st0 {
        fill: #e50914;
        fill-rule: evenodd;
      }
    </style>
  </defs>
  <path class="st0" d="M171.7,53.1c6,6.5,5.7,16.6-.8,22.6l-91.4,85.3c-6.5,6-16.6,5.7-22.6-.8-.3-.3-.5-.6-.7-.9l-25.9-32c-5.6-6.9-4.5-16.9,2.4-22.5s16.9-4.5,22.5,2.4l15.1,18.7,78.9-73.6c6.5-6,16.6-5.7,22.6.8ZM240,106.7c0-8.8,7.2-16,16-16h213.3c8.8,0,16,7.2,16,16s-7.2,16-16,16h-213.3c-8.8,0-16-7.2-16-16ZM171.7,202.4c6,6.5,5.7,16.6-.8,22.6l-91.4,85.3c-6.5,6-16.6,5.7-22.6-.8-.3-.3-.5-.6-.7-.9l-25.9-32c-5.6-6.9-4.5-16.9,2.4-22.5,6.9-5.6,16.9-4.5,22.5,2.4h0l15.1,18.7,78.9-73.6c6.5-6,16.6-5.7,22.6.8ZM240,256c0-8.8,7.2-16,16-16h213.3c8.8,0,16,7.2,16,16s-7.2,16-16,16h-213.3c-8.8,0-16-7.2-16-16ZM171.7,351.7c6,6.5,5.7,16.6-.8,22.6l-91.4,85.3c-6.5,6-16.6,5.7-22.6-.8-.3-.3-.5-.6-.7-.9l-25.9-32c-5.6-6.9-4.5-16.9,2.4-22.5,6.9-5.6,16.9-4.5,22.5,2.4l15.1,18.7,78.9-73.6c6.5-6,16.6-5.7,22.6.8h0ZM240,405.3c0-8.8,7.2-16,16-16h213.3c8.8,0,16,7.2,16,16s-7.2,16-16,16h-213.3c-8.8,0-16-7.2-16-16Z"/>
</svg>