<?xml version="1.0" standalone="no"?>
<!DOCTYPE svg PUBLIC "-//W3C//DTD SVG 20010904//EN"
 "http://www.w3.org/TR/2001/REC-SVG-20010904/DTD/svg10.dtd">
<svg version="1.0" xmlns="http://www.w3.org/2000/svg"
 width="1080.000000pt" height="1080.000000pt" viewBox="0 0 1080.000000 1080.000000"
 preserveAspectRatio="xMidYMid meet">

<g transform="translate(0.000000,1080.000000) scale(0.100000,-0.100000)"
fill="#000000" stroke="none">
<path d="M840 5610 l0 -1020 185 0 185 0 0 379 c0 208 3 393 6 410 l7 31 163
0 164 0 0 180 0 180 -165 0 -165 0 0 245 0 245 223 2 222 3 3 183 2 182 -415
0 -415 0 0 -1020z"/>
<path d="M1806 6623 c-8 -8 -7 -1965 1 -2005 l5 -28 184 0 184 0 0 1020 0
1020 -183 0 c-101 0 -187 -3 -191 -7z"/>
<path d="M2350 5610 l0 -1020 394 0 394 0 6 31 c3 17 6 98 6 180 l0 149 -209
0 -209 0 -7 48 c-4 26 -4 404 0 840 l8 792 -192 0 -191 0 0 -1020z"/>
<path d="M3289 6593 c-2 -21 -3 -480 -1 -1020 l3 -983 165 0 164 0 0 610 c0
487 3 610 13 610 8 0 20 -44 36 -132 12 -73 29 -169 37 -213 36 -199 130 -763
139 -828 l6 -48 127 3 127 3 7 40 c15 93 101 562 128 700 16 83 41 225 56 318
20 123 31 167 42 167 11 0 13 -53 11 -327 -2 -181 -2 -457 -1 -615 l2 -288
160 0 160 0 0 1020 0 1020 -250 0 -250 0 -5 -22 c-5 -24 -73 -405 -124 -702
-18 -98 -34 -205 -38 -237 -6 -61 -28 -82 -37 -36 -24 121 -70 375 -85 467
-37 219 -80 465 -87 498 l-6 32 -248 0 -248 0 -3 -37z"/>
<path d="M4794 6613 c3 -10 12 -70 21 -133 9 -63 19 -118 21 -121 2 -4 13 -62
24 -130 11 -68 36 -212 55 -319 19 -107 57 -325 86 -485 28 -159 62 -348 74
-420 13 -71 34 -194 47 -272 l23 -143 96 0 c53 0 150 -3 216 -6 l120 -7 22
119 c22 114 67 368 96 539 8 44 44 247 80 450 37 204 84 476 106 605 22 129
44 251 49 270 21 75 32 71 -177 68 l-188 -3 -8 -60 c-8 -63 -34 -232 -97 -630
-20 -132 -50 -321 -66 -420 -26 -171 -36 -207 -50 -192 -3 3 -16 93 -29 199
-32 266 -81 639 -111 848 -14 96 -28 194 -31 218 l-6 42 -189 0 c-176 0 -189
-1 -184 -17z"/>
<path d="M6126 6618 c-11 -33 -29 -134 -71 -383 -25 -148 -49 -287 -54 -308
-7 -28 -6 -40 3 -43 7 -3 75 -3 151 -2 l139 3 45 143 c25 78 50 142 56 142 5
0 25 -51 44 -113 19 -61 40 -127 48 -144 l13 -33 150 0 c83 0 150 4 150 9 0 5
-6 44 -14 87 -23 126 -75 482 -83 569 l-8 80 -283 3 c-221 2 -283 0 -286 -10z"/>
<path d="M7070 5983 c1 -892 11 -1054 75 -1199 31 -70 104 -142 179 -178 182
-86 469 -64 604 47 99 81 137 169 153 351 6 65 9 424 7 866 l-3 755 -189 3
-188 2 3 -807 4 -808 -22 -36 c-26 -41 -59 -59 -109 -59 -67 0 -100 31 -125
115 -5 17 -9 382 -10 813 l0 782 -190 0 -189 0 0 -647z"/>
<path d="M8280 5610 l0 -1020 418 0 417 0 0 185 0 185 -232 0 -233 0 0 835 0
835 -185 0 -185 0 0 -1020z"/>
<path d="M8980 6450 l0 -180 160 0 160 0 0 -840 0 -840 180 0 180 0 0 840 0
840 155 0 155 0 0 180 0 180 -495 0 -495 0 0 -180z"/>
<path d="M5985 5838 c-2 -13 -21 -115 -40 -228 -19 -113 -42 -241 -50 -285 -8
-44 -31 -181 -50 -305 -31 -198 -55 -335 -71 -407 l-4 -23 175 0 c96 0 175 2
175 4 0 2 7 40 15 83 8 43 26 148 40 233 33 210 41 234 68 226 12 -3 90 -6
172 -6 l151 0 27 -197 c15 -109 33 -231 39 -270 l10 -73 174 0 c96 0 174 3
174 6 0 9 -109 762 -125 859 -8 50 -24 161 -36 248 -17 121 -25 157 -35 153
-19 -7 -211 -145 -223 -160 -8 -9 2 -52 34 -151 25 -76 44 -142 43 -147 -2 -4
-34 15 -73 42 -38 28 -95 68 -126 90 l-57 39 -123 -89 c-68 -49 -125 -84 -127
-77 -1 7 18 73 42 147 24 74 42 138 40 142 -4 6 -191 142 -221 161 -8 5 -14 0
-18 -15z"/>
</g>
</svg>
